<svg width="657" height="256" viewBox="0 0 657 256" fill="none" xmlns="http://www.w3.org/2000/svg">
<path d="M0 0H256V256H0V0Z" fill="#F3DF49"/>
<path d="M175.744 196.096L208.768 214.528L198.656 238.336H189.952L182.784 227.456L129.664 213.248L175.744 196.096ZM134.144 141.312L171.648 171.008V190.336L121.344 209.792L95.1039 211.072L74.8799 183.936L93.9519 157.824L134.144 141.312ZM189.952 132.48L236.8 161.28L231.04 196.608L212.992 209.92L178.432 190.336V171.008L171.904 133.632L189.952 132.48ZM164.992 134.784L170.88 162.56L142.208 138.624L164.992 134.784Z" fill="#2E3856"/>
<path d="M360.614 82.3984C360.614 86.2285 359.89 89.5928 358.44 92.4912C356.991 95.3896 355.042 97.7878 352.592 99.6855C349.693 101.963 346.502 103.585 343.017 104.551C339.566 105.517 335.167 106 329.818 106H298.971V28.9326H326.195C331.854 28.9326 336.133 29.1569 339.031 29.6055C341.964 30.0195 344.707 30.9167 347.261 32.2969C350.021 33.7806 352.074 35.7646 353.42 38.249C354.8 40.7334 355.49 43.5973 355.49 46.8408C355.49 50.6019 354.541 53.9489 352.644 56.8818C350.78 59.8148 348.192 61.9714 344.88 63.3516V63.7656C349.642 64.7663 353.454 66.8193 356.318 69.9248C359.182 72.9958 360.614 77.1536 360.614 82.3984ZM335.822 50.7227C335.822 49.4805 335.494 48.2038 334.839 46.8926C334.218 45.5814 333.234 44.6325 331.889 44.0459C330.612 43.4938 329.094 43.2005 327.334 43.166C325.609 43.097 323.021 43.0625 319.57 43.0625H318.225V59.3662H320.657C323.97 59.3662 326.282 59.3317 327.593 59.2627C328.938 59.1937 330.319 58.8314 331.733 58.1758C333.286 57.4512 334.356 56.4505 334.942 55.1738C335.529 53.8971 335.822 52.4134 335.822 50.7227ZM340.688 82.0361C340.688 79.6553 340.204 77.792 339.238 76.4463C338.272 75.1006 336.823 74.0827 334.891 73.3926C333.717 72.944 332.096 72.7025 330.025 72.668C327.99 72.599 325.246 72.5645 321.796 72.5645H318.225V91.8701H319.26C324.298 91.8701 327.783 91.8356 329.715 91.7666C331.647 91.6976 333.614 91.2318 335.615 90.3691C337.375 89.61 338.652 88.5059 339.445 87.0566C340.273 85.5729 340.688 83.8994 340.688 82.0361ZM425.632 65.0078H424.131C423.441 64.7663 422.441 64.5938 421.129 64.4902C419.818 64.3522 418.369 64.2832 416.782 64.2832C414.884 64.2832 412.883 64.5592 410.778 65.1113C408.708 65.6634 406.689 66.319 404.722 67.0781V106H386.607V47.876H404.722V56.209C405.55 55.4499 406.689 54.501 408.138 53.3623C409.622 52.1891 410.968 51.2575 412.175 50.5674C413.487 49.7738 415.005 49.1009 416.73 48.5488C418.49 47.9622 420.146 47.6689 421.699 47.6689C422.285 47.6689 422.941 47.6862 423.666 47.7207C424.39 47.7552 425.046 47.807 425.632 47.876V65.0078ZM480.506 90.835V78.7236C477.435 79.0342 474.951 79.3102 473.053 79.5518C471.155 79.7588 469.292 80.1901 467.463 80.8457C465.876 81.3978 464.634 82.2432 463.737 83.3818C462.874 84.486 462.443 85.9697 462.443 87.833C462.443 90.5589 463.167 92.4395 464.616 93.4746C466.1 94.4753 468.274 94.9756 471.138 94.9756C472.725 94.9756 474.347 94.6133 476.003 93.8887C477.659 93.1641 479.16 92.1462 480.506 90.835ZM480.506 99.8408C479.264 100.876 478.142 101.808 477.142 102.636C476.176 103.464 474.864 104.292 473.208 105.12C471.586 105.914 469.999 106.518 468.446 106.932C466.928 107.346 464.789 107.553 462.029 107.553C456.887 107.553 452.609 105.827 449.193 102.377C445.811 98.9264 444.12 94.5788 444.12 89.334C444.12 85.0208 444.983 81.5358 446.708 78.8789C448.433 76.222 450.918 74.1172 454.161 72.5645C457.439 70.9772 461.356 69.873 465.91 69.252C470.465 68.6309 475.365 68.1478 480.61 67.8027V67.4922C480.61 64.2832 479.419 62.0749 477.038 60.8672C474.692 59.625 471.155 59.0039 466.428 59.0039C464.289 59.0039 461.787 59.4007 458.923 60.1943C456.059 60.9535 453.264 61.9368 450.538 63.1445H448.986V49.1182C450.78 48.6006 453.678 47.9967 457.681 47.3066C461.683 46.582 465.721 46.2197 469.792 46.2197C479.799 46.2197 487.079 47.8932 491.634 51.2402C496.223 54.5527 498.518 59.625 498.518 66.457V106H480.506V99.8408ZM545.938 106H527.823V47.876H545.938V106ZM546.456 39.5947H527.305V25.4648H546.456V39.5947ZM630.159 106H611.94V77.1709C611.94 74.8245 611.836 72.4954 611.629 70.1836C611.457 67.8372 611.112 66.112 610.594 65.0078C609.973 63.6966 609.076 62.765 607.903 62.2129C606.73 61.6263 605.16 61.333 603.193 61.333C601.709 61.333 600.208 61.609 598.69 62.1611C597.172 62.7132 595.55 63.5931 593.825 64.8008V106H575.709V47.876H593.825V54.2939C596.792 51.7751 599.673 49.8083 602.468 48.3936C605.298 46.9788 608.42 46.2715 611.836 46.2715C617.771 46.2715 622.309 48.152 625.449 51.9131C628.589 55.6396 630.159 61.057 630.159 68.165V106ZM332.199 235.501C320.64 235.501 311.462 232.016 304.664 225.046C297.867 218.041 294.468 208.207 294.468 195.544C294.468 183.329 297.867 173.599 304.664 166.353C311.496 159.072 320.692 155.432 332.251 155.432C335.322 155.432 338.082 155.604 340.532 155.949C342.982 156.294 345.328 156.777 347.571 157.398C349.331 157.916 351.246 158.623 353.316 159.521C355.387 160.418 357.06 161.194 358.337 161.85V180.224H356.37C355.438 179.396 354.265 178.412 352.851 177.273C351.436 176.1 349.831 174.962 348.037 173.857C346.243 172.753 344.259 171.822 342.085 171.062C339.946 170.269 337.703 169.872 335.356 169.872C332.562 169.872 329.991 170.321 327.645 171.218C325.333 172.08 323.124 173.599 321.02 175.772C319.087 177.739 317.5 180.396 316.258 183.743C315.05 187.09 314.446 191.041 314.446 195.596C314.446 200.392 315.085 204.429 316.361 207.707C317.638 210.951 319.312 213.573 321.382 215.574C323.383 217.507 325.609 218.904 328.059 219.767C330.543 220.629 333.01 221.061 335.46 221.061C338.013 221.061 340.446 220.646 342.758 219.818C345.07 218.956 347.019 218.007 348.606 216.972C350.332 215.902 351.85 214.815 353.161 213.711C354.472 212.607 355.611 211.623 356.577 210.761H358.337V228.876C356.922 229.532 355.283 230.291 353.42 231.153C351.557 231.981 349.642 232.689 347.675 233.275C345.259 234 342.999 234.552 340.895 234.932C338.79 235.311 335.891 235.501 332.199 235.501ZM416.678 218.835V206.724C413.607 207.034 411.123 207.31 409.225 207.552C407.327 207.759 405.464 208.19 403.635 208.846C402.048 209.398 400.806 210.243 399.909 211.382C399.046 212.486 398.615 213.97 398.615 215.833C398.615 218.559 399.339 220.439 400.789 221.475C402.272 222.475 404.446 222.976 407.31 222.976C408.897 222.976 410.519 222.613 412.175 221.889C413.832 221.164 415.333 220.146 416.678 218.835ZM416.678 227.841C415.436 228.876 414.315 229.808 413.314 230.636C412.348 231.464 411.037 232.292 409.38 233.12C407.759 233.914 406.171 234.518 404.619 234.932C403.101 235.346 400.961 235.553 398.201 235.553C393.06 235.553 388.781 233.827 385.365 230.377C381.983 226.926 380.293 222.579 380.293 217.334C380.293 213.021 381.155 209.536 382.88 206.879C384.606 204.222 387.09 202.117 390.334 200.564C393.612 198.977 397.528 197.873 402.083 197.252C406.637 196.631 411.537 196.148 416.782 195.803V195.492C416.782 192.283 415.591 190.075 413.211 188.867C410.864 187.625 407.327 187.004 402.6 187.004C400.461 187.004 397.959 187.401 395.095 188.194C392.231 188.953 389.436 189.937 386.711 191.145H385.158V177.118C386.952 176.601 389.851 175.997 393.853 175.307C397.856 174.582 401.893 174.22 405.964 174.22C415.971 174.22 423.252 175.893 427.806 179.24C432.395 182.553 434.69 187.625 434.69 194.457V234H416.678V227.841ZM503.021 193.008H501.52C500.83 192.766 499.829 192.594 498.518 192.49C497.207 192.352 495.757 192.283 494.17 192.283C492.272 192.283 490.271 192.559 488.166 193.111C486.096 193.663 484.077 194.319 482.111 195.078V234H463.995V175.876H482.111V184.209C482.939 183.45 484.077 182.501 485.527 181.362C487.01 180.189 488.356 179.257 489.564 178.567C490.875 177.774 492.393 177.101 494.118 176.549C495.878 175.962 497.534 175.669 499.087 175.669C499.674 175.669 500.329 175.686 501.054 175.721C501.779 175.755 502.434 175.807 503.021 175.876V193.008ZM578.701 234H560.586V227.944C559.413 228.91 558.067 229.946 556.549 231.05C555.065 232.154 553.754 232.982 552.615 233.534C551.166 234.224 549.734 234.742 548.319 235.087C546.904 235.432 545.214 235.604 543.247 235.604C536.622 235.604 531.377 232.861 527.512 227.375C523.648 221.889 521.716 214.556 521.716 205.378C521.716 200.306 522.371 195.906 523.682 192.18C524.994 188.453 526.805 185.21 529.117 182.449C531.222 179.93 533.775 177.946 536.777 176.497C539.779 175.013 542.954 174.271 546.301 174.271C549.337 174.271 551.821 174.599 553.754 175.255C555.721 175.876 557.998 176.859 560.586 178.205V153.465H578.701V234ZM560.586 217.955V189.437C559.689 188.988 558.515 188.626 557.066 188.35C555.617 188.039 554.375 187.884 553.34 187.884C548.992 187.884 545.714 189.402 543.506 192.438C541.332 195.475 540.245 199.719 540.245 205.171C540.245 210.899 541.108 215.039 542.833 217.593C544.593 220.146 547.422 221.423 551.321 221.423C552.908 221.423 554.513 221.112 556.135 220.491C557.756 219.87 559.24 219.025 560.586 217.955ZM626.225 235.604C621.946 235.604 617.892 235.139 614.062 234.207C610.266 233.275 607.126 232.188 604.642 230.946V215.626H606.143C607.006 216.282 607.989 217.006 609.093 217.8C610.197 218.593 611.733 219.422 613.7 220.284C615.39 221.078 617.288 221.768 619.393 222.354C621.532 222.907 623.844 223.183 626.329 223.183C628.882 223.183 631.125 222.786 633.057 221.992C635.024 221.199 636.007 219.939 636.007 218.214C636.007 216.868 635.559 215.85 634.662 215.16C633.764 214.47 632.022 213.814 629.434 213.193C628.054 212.848 626.311 212.486 624.206 212.106C622.102 211.692 620.238 211.227 618.617 210.709C614.062 209.294 610.629 207.207 608.317 204.446C606.039 201.651 604.901 197.994 604.901 193.474C604.901 190.886 605.487 188.453 606.661 186.176C607.868 183.864 609.628 181.811 611.94 180.017C614.252 178.257 617.098 176.859 620.48 175.824C623.896 174.789 627.743 174.271 632.022 174.271C636.093 174.271 639.837 174.686 643.253 175.514C646.669 176.307 649.551 177.273 651.897 178.412V193.111H650.448C649.827 192.628 648.843 191.99 647.497 191.196C646.152 190.368 644.841 189.661 643.564 189.074C642.046 188.384 640.338 187.815 638.44 187.366C636.577 186.918 634.662 186.693 632.695 186.693C630.072 186.693 627.847 187.142 626.018 188.039C624.224 188.936 623.327 190.127 623.327 191.61C623.327 192.922 623.775 193.957 624.672 194.716C625.569 195.475 627.519 196.217 630.521 196.941C632.074 197.321 633.851 197.701 635.852 198.08C637.888 198.425 639.837 198.908 641.701 199.529C645.876 200.875 649.033 202.859 651.172 205.481C653.346 208.069 654.433 211.52 654.433 215.833C654.433 218.559 653.795 221.164 652.518 223.648C651.241 226.098 649.43 228.169 647.083 229.859C644.599 231.688 641.666 233.103 638.285 234.104C634.938 235.104 630.918 235.604 626.225 235.604Z" fill="#F3DF49"/>
</svg>
