<svg width="512" height="512" viewBox="0 0 512 512" fill="#ffffff" xmlns="http://www.w3.org/2000/svg">
<path d="M19.8281 18.2561L19.8261 18.2711C269.468 55.2661 391.73 188.254 417.146 296.281C415.052 302.258 412.65 307.325 410.078 311.249C392.788 337.632 347.556 351.324 308.424 339.845C314.408 320.095 318.556 300.011 320.494 280.725C225.034 288.902 107.95 289.145 19.2871 258.083C61.0141 353.4 118.612 422.548 184.27 488.163C202.566 485.999 220.077 476.813 236.107 462.793C321.325 497.46 424.173 460.238 462.855 402.113C509.777 331.613 536.925 84.5931 295.393 18.2571H232.81C393.136 73.1311 428.54 185.997 424.383 257.287C387.233 163.66 286.703 65.4321 112.003 18.2571H19.8301L19.8281 18.2561Z" />
</svg>
